<svg width="640" height="640" viewBox="0 0 640 640" fill="none" xmlns="http://www.w3.org/2000/svg">
  <rect width="640" height="640" rx="160" fill="#161827"/>
  <rect x="24" y="24" width="592" height="592" rx="136" fill="url(#paint0_radial)" stroke="rgba(255,255,255,0.12)"/>
  <circle cx="320" cy="250" r="110" fill="url(#paint1_linear)"/>
  <path d="M191 506C205 425 253 372 320 372C387 372 435 425 449 506" fill="url(#paint2_linear)"/>
  <circle cx="320" cy="250" r="109" stroke="rgba(255,255,255,0.22)" stroke-width="2"/>
  <path d="M191 506C205 425 253 372 320 372C387 372 435 425 449 506" stroke="rgba(255,255,255,0.18)" stroke-width="2"/>
  <rect x="98" y="92" width="132" height="36" rx="18" fill="rgba(255,255,255,0.07)"/>
  <text x="164" y="116" text-anchor="middle" fill="#F3F3F7" font-size="17" font-family="Orbitron, Arial, sans-serif" letter-spacing="2">PUTRA</text>
  <defs>
    <radialGradient id="paint0_radial" cx="0" cy="0" r="1" gradientUnits="userSpaceOnUse" gradientTransform="translate(324 180) rotate(90) scale(436)">
      <stop stop-color="#2F3251"/>
      <stop offset="0.62" stop-color="#202233"/>
      <stop offset="1" stop-color="#171925"/>
    </radialGradient>
    <linearGradient id="paint1_linear" x1="210" y1="140" x2="430" y2="360" gradientUnits="userSpaceOnUse">
      <stop stop-color="#8B74FF"/>
      <stop offset="1" stop-color="#90E6FF"/>
    </linearGradient>
    <linearGradient id="paint2_linear" x1="206" y1="390" x2="438" y2="536" gradientUnits="userSpaceOnUse">
      <stop stop-color="#FF8D67"/>
      <stop offset="1" stop-color="#7B5CFF"/>
    </linearGradient>
  </defs>
</svg>
