<svg xmlns="http://www.w3.org/2000/svg" viewBox="0 0 1600 900">
  <defs>
    <linearGradient id="bg" x1="0%" y1="0%" x2="100%" y2="100%">
      <stop offset="0%" stop-color="#08111e" />
      <stop offset="55%" stop-color="#0f2136" />
      <stop offset="100%" stop-color="#1b1030" />
    </linearGradient>
    <radialGradient id="glowA" cx="50%" cy="50%" r="50%">
      <stop offset="0%" stop-color="#f77b33" stop-opacity=".9" />
      <stop offset="100%" stop-color="#f77b33" stop-opacity="0" />
    </radialGradient>
    <radialGradient id="glowB" cx="50%" cy="50%" r="50%">
      <stop offset="0%" stop-color="#5bc8ff" stop-opacity=".85" />
      <stop offset="100%" stop-color="#5bc8ff" stop-opacity="0" />
    </radialGradient>
  </defs>
  <rect width="1600" height="900" fill="url(#bg)" />
  <circle cx="1180" cy="220" r="240" fill="url(#glowA)" />
  <circle cx="420" cy="640" r="280" fill="url(#glowB)" />
  <g fill="none" opacity=".24" stroke="#ffffff">
    <path d="M0 630c220-130 360-172 520-126s286 54 454-28 352-136 626-82" />
    <path d="M0 710c196-80 330-112 470-98s290 54 482-18 330-88 648-12" />
  </g>
  <text x="120" y="240" fill="#f4f7fb" font-size="72" font-family="Arial, sans-serif" font-weight="700">
    Putra Christian
  </text>
  <text x="120" y="332" fill="#a9bdd5" font-size="34" font-family="Arial, sans-serif">
    Front-End Web Developer for game web events and gamification
  </text>
  <rect x="120" y="406" width="420" height="2" fill="#f77b33" />
  <text x="120" y="492" fill="#e7eef9" font-size="26" font-family="Arial, sans-serif">
    Cinematic case studies • interaction craft • grounded AI portfolio assistant
  </text>
</svg>
